<?xml version="1.0" encoding="utf-8"?>
<svg viewBox="1.4342 0.6828 499.3672 261.897" xmlns="http://www.w3.org/2000/svg">
  <g id="Page-1" stroke="none" stroke-width="1" fill="none" fill-rule="evenodd" transform="matrix(1.3228240013122559, 0, 0, 1.1976709365844727, 15.73932075500489, 6.868095874786391)" style="">
    <g id="bubbles" fill="#000000">
      <path d="M11,18 C14.8659932,18 18,14.8659932 18,11 C18,7.13400675 14.8659932,4 11,4 C7.13400675,4 4,7.13400675 4,11 C4,14.8659932 7.13400675,18 11,18 Z M59,43 C62.8659932,43 66,39.8659932 66,36 C66,32.1340068 62.8659932,29 59,29 C55.1340068,29 52,32.1340068 52,36 C52,39.8659932 55.1340068,43 59,43 Z M16,36 C17.6568542,36 19,34.6568542 19,33 C19,31.3431458 17.6568542,30 16,30 C14.3431458,30 13,31.3431458 13,33 C13,34.6568542 14.3431458,36 16,36 Z M79,67 C80.6568542,67 82,65.6568542 82,64 C82,62.3431458 80.6568542,61 79,61 C77.3431458,61 76,62.3431458 76,64 C76,65.6568542 77.3431458,67 79,67 Z M34,90 C35.6568542,90 37,88.6568542 37,87 C37,85.3431458 35.6568542,84 34,84 C32.3431458,84 31,85.3431458 31,87 C31,88.6568542 32.3431458,90 34,90 Z M90,14 C91.6568542,14 93,12.6568542 93,11 C93,9.34314575 91.6568542,8 90,8 C88.3431458,8 87,9.34314575 87,11 C87,12.6568542 88.3431458,14 90,14 Z M12,86 C14.209139,86 16,84.209139 16,82 C16,79.790861 14.209139,78 12,78 C9.790861,78 8,79.790861 8,82 C8,84.209139 9.790861,86 12,86 Z M40,21 C42.209139,21 44,19.209139 44,17 C44,14.790861 42.209139,13 40,13 C37.790861,13 36,14.790861 36,17 C36,19.209139 37.790861,21 40,21 Z M63,10 C65.7614237,10 68,7.76142375 68,5 C68,2.23857625 65.7614237,0 63,0 C60.2385763,0 58,2.23857625 58,5 C58,7.76142375 60.2385763,10 63,10 Z M57,70 C59.209139,70 61,68.209139 61,66 C61,63.790861 59.209139,62 57,62 C54.790861,62 53,63.790861 53,66 C53,68.209139 54.790861,70 57,70 Z M86,92 C88.7614237,92 91,89.7614237 91,87 C91,84.2385763 88.7614237,82 86,82 C83.2385763,82 81,84.2385763 81,87 C81,89.7614237 83.2385763,92 86,92 Z M32,63 C34.7614237,63 37,60.7614237 37,58 C37,55.2385763 34.7614237,53 32,53 C29.2385763,53 27,55.2385763 27,58 C27,60.7614237 29.2385763,63 32,63 Z M89,50 C91.7614237,50 94,47.7614237 94,45 C94,42.2385763 91.7614237,40 89,40 C86.2385763,40 84,42.2385763 84,45 C84,47.7614237 86.2385763,50 89,50 Z M80,29 C81.1045695,29 82,28.1045695 82,27 C82,25.8954305 81.1045695,25 80,25 C78.8954305,25 78,25.8954305 78,27 C78,28.1045695 78.8954305,29 80,29 Z M60,91 C61.1045695,91 62,90.1045695 62,89 C62,87.8954305 61.1045695,87 60,87 C58.8954305,87 58,87.8954305 58,89 C58,90.1045695 58.8954305,91 60,91 Z M35,41 C36.1045695,41 37,40.1045695 37,39 C37,37.8954305 36.1045695,37 35,37 C33.8954305,37 33,37.8954305 33,39 C33,40.1045695 33.8954305,41 35,41 Z M12,60 C13.1045695,60 14,59.1045695 14,58 C14,56.8954305 13.1045695,56 12,56 C10.8954305,56 10,56.8954305 10,58 C10,59.1045695 10.8954305,60 12,60 Z" id="Combined-Shape" style="fill: rgb(204, 0, 0);"/>
    </g>
  </g>
  <g id="g-1" stroke="none" stroke-width="1" fill="none" fill-rule="evenodd" transform="matrix(1.3228230476379395, 0, 0, 1.2769570350646973, -2.6270251274108816, 4.752969741821303)" style="">
    <g id="g-2" fill="#000000">
      <path d="M11,18 C14.8659932,18 18,14.8659932 18,11 C18,7.13400675 14.8659932,4 11,4 C7.13400675,4 4,7.13400675 4,11 C4,14.8659932 7.13400675,18 11,18 Z M59,43 C62.8659932,43 66,39.8659932 66,36 C66,32.1340068 62.8659932,29 59,29 C55.1340068,29 52,32.1340068 52,36 C52,39.8659932 55.1340068,43 59,43 Z M16,36 C17.6568542,36 19,34.6568542 19,33 C19,31.3431458 17.6568542,30 16,30 C14.3431458,30 13,31.3431458 13,33 C13,34.6568542 14.3431458,36 16,36 Z M79,67 C80.6568542,67 82,65.6568542 82,64 C82,62.3431458 80.6568542,61 79,61 C77.3431458,61 76,62.3431458 76,64 C76,65.6568542 77.3431458,67 79,67 Z M34,90 C35.6568542,90 37,88.6568542 37,87 C37,85.3431458 35.6568542,84 34,84 C32.3431458,84 31,85.3431458 31,87 C31,88.6568542 32.3431458,90 34,90 Z M90,14 C91.6568542,14 93,12.6568542 93,11 C93,9.34314575 91.6568542,8 90,8 C88.3431458,8 87,9.34314575 87,11 C87,12.6568542 88.3431458,14 90,14 Z M12,86 C14.209139,86 16,84.209139 16,82 C16,79.790861 14.209139,78 12,78 C9.790861,78 8,79.790861 8,82 C8,84.209139 9.790861,86 12,86 Z M40,21 C42.209139,21 44,19.209139 44,17 C44,14.790861 42.209139,13 40,13 C37.790861,13 36,14.790861 36,17 C36,19.209139 37.790861,21 40,21 Z M63,10 C65.7614237,10 68,7.76142375 68,5 C68,2.23857625 65.7614237,0 63,0 C60.2385763,0 58,2.23857625 58,5 C58,7.76142375 60.2385763,10 63,10 Z M57,70 C59.209139,70 61,68.209139 61,66 C61,63.790861 59.209139,62 57,62 C54.790861,62 53,63.790861 53,66 C53,68.209139 54.790861,70 57,70 Z M86,92 C88.7614237,92 91,89.7614237 91,87 C91,84.2385763 88.7614237,82 86,82 C83.2385763,82 81,84.2385763 81,87 C81,89.7614237 83.2385763,92 86,92 Z M32,63 C34.7614237,63 37,60.7614237 37,58 C37,55.2385763 34.7614237,53 32,53 C29.2385763,53 27,55.2385763 27,58 C27,60.7614237 29.2385763,63 32,63 Z M89,50 C91.7614237,50 94,47.7614237 94,45 C94,42.2385763 91.7614237,40 89,40 C86.2385763,40 84,42.2385763 84,45 C84,47.7614237 86.2385763,50 89,50 Z M80,29 C81.1045695,29 82,28.1045695 82,27 C82,25.8954305 81.1045695,25 80,25 C78.8954305,25 78,25.8954305 78,27 C78,28.1045695 78.8954305,29 80,29 Z M60,91 C61.1045695,91 62,90.1045695 62,89 C62,87.8954305 61.1045695,87 60,87 C58.8954305,87 58,87.8954305 58,89 C58,90.1045695 58.8954305,91 60,91 Z M35,41 C36.1045695,41 37,40.1045695 37,39 C37,37.8954305 36.1045695,37 35,37 C33.8954305,37 33,37.8954305 33,39 C33,40.1045695 33.8954305,41 35,41 Z M12,60 C13.1045695,60 14,59.1045695 14,58 C14,56.8954305 13.1045695,56 12,56 C10.8954305,56 10,56.8954305 10,58 C10,59.1045695 10.8954305,60 12,60 Z" id="path-1" style="fill: rgb(255, 222, 21);"/>
    </g>
  </g>
  <g id="g-5" stroke="none" stroke-width="1" fill="none" fill-rule="evenodd" transform="matrix(1.1533570289611816, 0, 0, 1.2192940711975098, 12.316173553466804, 23.838336944580092)" style="">
    <g id="g-6" fill="#000000">
      <path d="M11,18 C14.8659932,18 18,14.8659932 18,11 C18,7.13400675 14.8659932,4 11,4 C7.13400675,4 4,7.13400675 4,11 C4,14.8659932 7.13400675,18 11,18 Z M59,43 C62.8659932,43 66,39.8659932 66,36 C66,32.1340068 62.8659932,29 59,29 C55.1340068,29 52,32.1340068 52,36 C52,39.8659932 55.1340068,43 59,43 Z M16,36 C17.6568542,36 19,34.6568542 19,33 C19,31.3431458 17.6568542,30 16,30 C14.3431458,30 13,31.3431458 13,33 C13,34.6568542 14.3431458,36 16,36 Z M79,67 C80.6568542,67 82,65.6568542 82,64 C82,62.3431458 80.6568542,61 79,61 C77.3431458,61 76,62.3431458 76,64 C76,65.6568542 77.3431458,67 79,67 Z M34,90 C35.6568542,90 37,88.6568542 37,87 C37,85.3431458 35.6568542,84 34,84 C32.3431458,84 31,85.3431458 31,87 C31,88.6568542 32.3431458,90 34,90 Z M90,14 C91.6568542,14 93,12.6568542 93,11 C93,9.34314575 91.6568542,8 90,8 C88.3431458,8 87,9.34314575 87,11 C87,12.6568542 88.3431458,14 90,14 Z M12,86 C14.209139,86 16,84.209139 16,82 C16,79.790861 14.209139,78 12,78 C9.790861,78 8,79.790861 8,82 C8,84.209139 9.790861,86 12,86 Z M40,21 C42.209139,21 44,19.209139 44,17 C44,14.790861 42.209139,13 40,13 C37.790861,13 36,14.790861 36,17 C36,19.209139 37.790861,21 40,21 Z M63,10 C65.7614237,10 68,7.76142375 68,5 C68,2.23857625 65.7614237,0 63,0 C60.2385763,0 58,2.23857625 58,5 C58,7.76142375 60.2385763,10 63,10 Z M57,70 C59.209139,70 61,68.209139 61,66 C61,63.790861 59.209139,62 57,62 C54.790861,62 53,63.790861 53,66 C53,68.209139 54.790861,70 57,70 Z M86,92 C88.7614237,92 91,89.7614237 91,87 C91,84.2385763 88.7614237,82 86,82 C83.2385763,82 81,84.2385763 81,87 C81,89.7614237 83.2385763,92 86,92 Z M32,63 C34.7614237,63 37,60.7614237 37,58 C37,55.2385763 34.7614237,53 32,53 C29.2385763,53 27,55.2385763 27,58 C27,60.7614237 29.2385763,63 32,63 Z M89,50 C91.7614237,50 94,47.7614237 94,45 C94,42.2385763 91.7614237,40 89,40 C86.2385763,40 84,42.2385763 84,45 C84,47.7614237 86.2385763,50 89,50 Z M80,29 C81.1045695,29 82,28.1045695 82,27 C82,25.8954305 81.1045695,25 80,25 C78.8954305,25 78,25.8954305 78,27 C78,28.1045695 78.8954305,29 80,29 Z M60,91 C61.1045695,91 62,90.1045695 62,89 C62,87.8954305 61.1045695,87 60,87 C58.8954305,87 58,87.8954305 58,89 C58,90.1045695 58.8954305,91 60,91 Z M35,41 C36.1045695,41 37,40.1045695 37,39 C37,37.8954305 36.1045695,37 35,37 C33.8954305,37 33,37.8954305 33,39 C33,40.1045695 33.8954305,41 35,41 Z M12,60 C13.1045695,60 14,59.1045695 14,58 C14,56.8954305 13.1045695,56 12,56 C10.8954305,56 10,56.8954305 10,58 C10,59.1045695 10.8954305,60 12,60 Z" id="path-3"/>
    </g>
  </g>
  <g id="g-3" stroke="none" stroke-width="1" fill="none" fill-rule="evenodd" transform="matrix(1.3228240013122559, 0, 0, 1.1976709365844727, 14.509212493896491, 128.12945556640628)" style="">
    <g id="g-4" fill="#000000">
      <path d="M11,18 C14.8659932,18 18,14.8659932 18,11 C18,7.13400675 14.8659932,4 11,4 C7.13400675,4 4,7.13400675 4,11 C4,14.8659932 7.13400675,18 11,18 Z M59,43 C62.8659932,43 66,39.8659932 66,36 C66,32.1340068 62.8659932,29 59,29 C55.1340068,29 52,32.1340068 52,36 C52,39.8659932 55.1340068,43 59,43 Z M16,36 C17.6568542,36 19,34.6568542 19,33 C19,31.3431458 17.6568542,30 16,30 C14.3431458,30 13,31.3431458 13,33 C13,34.6568542 14.3431458,36 16,36 Z M79,67 C80.6568542,67 82,65.6568542 82,64 C82,62.3431458 80.6568542,61 79,61 C77.3431458,61 76,62.3431458 76,64 C76,65.6568542 77.3431458,67 79,67 Z M34,90 C35.6568542,90 37,88.6568542 37,87 C37,85.3431458 35.6568542,84 34,84 C32.3431458,84 31,85.3431458 31,87 C31,88.6568542 32.3431458,90 34,90 Z M90,14 C91.6568542,14 93,12.6568542 93,11 C93,9.34314575 91.6568542,8 90,8 C88.3431458,8 87,9.34314575 87,11 C87,12.6568542 88.3431458,14 90,14 Z M12,86 C14.209139,86 16,84.209139 16,82 C16,79.790861 14.209139,78 12,78 C9.790861,78 8,79.790861 8,82 C8,84.209139 9.790861,86 12,86 Z M40,21 C42.209139,21 44,19.209139 44,17 C44,14.790861 42.209139,13 40,13 C37.790861,13 36,14.790861 36,17 C36,19.209139 37.790861,21 40,21 Z M63,10 C65.7614237,10 68,7.76142375 68,5 C68,2.23857625 65.7614237,0 63,0 C60.2385763,0 58,2.23857625 58,5 C58,7.76142375 60.2385763,10 63,10 Z M57,70 C59.209139,70 61,68.209139 61,66 C61,63.790861 59.209139,62 57,62 C54.790861,62 53,63.790861 53,66 C53,68.209139 54.790861,70 57,70 Z M86,92 C88.7614237,92 91,89.7614237 91,87 C91,84.2385763 88.7614237,82 86,82 C83.2385763,82 81,84.2385763 81,87 C81,89.7614237 83.2385763,92 86,92 Z M32,63 C34.7614237,63 37,60.7614237 37,58 C37,55.2385763 34.7614237,53 32,53 C29.2385763,53 27,55.2385763 27,58 C27,60.7614237 29.2385763,63 32,63 Z M89,50 C91.7614237,50 94,47.7614237 94,45 C94,42.2385763 91.7614237,40 89,40 C86.2385763,40 84,42.2385763 84,45 C84,47.7614237 86.2385763,50 89,50 Z M80,29 C81.1045695,29 82,28.1045695 82,27 C82,25.8954305 81.1045695,25 80,25 C78.8954305,25 78,25.8954305 78,27 C78,28.1045695 78.8954305,29 80,29 Z M60,91 C61.1045695,91 62,90.1045695 62,89 C62,87.8954305 61.1045695,87 60,87 C58.8954305,87 58,87.8954305 58,89 C58,90.1045695 58.8954305,91 60,91 Z M35,41 C36.1045695,41 37,40.1045695 37,39 C37,37.8954305 36.1045695,37 35,37 C33.8954305,37 33,37.8954305 33,39 C33,40.1045695 33.8954305,41 35,41 Z M12,60 C13.1045695,60 14,59.1045695 14,58 C14,56.8954305 13.1045695,56 12,56 C10.8954305,56 10,56.8954305 10,58 C10,59.1045695 10.8954305,60 12,60 Z" id="path-2" style="fill: rgb(204, 0, 0);"/>
    </g>
  </g>
  <g id="g-7" stroke="none" stroke-width="1" fill="none" fill-rule="evenodd" transform="matrix(1.3228230476379395, 0, 0, 1.2769570350646973, -3.85713601112365, 126.01432037353518)" style="">
    <g id="g-8" fill="#000000">
      <path d="M11,18 C14.8659932,18 18,14.8659932 18,11 C18,7.13400675 14.8659932,4 11,4 C7.13400675,4 4,7.13400675 4,11 C4,14.8659932 7.13400675,18 11,18 Z M59,43 C62.8659932,43 66,39.8659932 66,36 C66,32.1340068 62.8659932,29 59,29 C55.1340068,29 52,32.1340068 52,36 C52,39.8659932 55.1340068,43 59,43 Z M16,36 C17.6568542,36 19,34.6568542 19,33 C19,31.3431458 17.6568542,30 16,30 C14.3431458,30 13,31.3431458 13,33 C13,34.6568542 14.3431458,36 16,36 Z M79,67 C80.6568542,67 82,65.6568542 82,64 C82,62.3431458 80.6568542,61 79,61 C77.3431458,61 76,62.3431458 76,64 C76,65.6568542 77.3431458,67 79,67 Z M34,90 C35.6568542,90 37,88.6568542 37,87 C37,85.3431458 35.6568542,84 34,84 C32.3431458,84 31,85.3431458 31,87 C31,88.6568542 32.3431458,90 34,90 Z M90,14 C91.6568542,14 93,12.6568542 93,11 C93,9.34314575 91.6568542,8 90,8 C88.3431458,8 87,9.34314575 87,11 C87,12.6568542 88.3431458,14 90,14 Z M12,86 C14.209139,86 16,84.209139 16,82 C16,79.790861 14.209139,78 12,78 C9.790861,78 8,79.790861 8,82 C8,84.209139 9.790861,86 12,86 Z M40,21 C42.209139,21 44,19.209139 44,17 C44,14.790861 42.209139,13 40,13 C37.790861,13 36,14.790861 36,17 C36,19.209139 37.790861,21 40,21 Z M63,10 C65.7614237,10 68,7.76142375 68,5 C68,2.23857625 65.7614237,0 63,0 C60.2385763,0 58,2.23857625 58,5 C58,7.76142375 60.2385763,10 63,10 Z M57,70 C59.209139,70 61,68.209139 61,66 C61,63.790861 59.209139,62 57,62 C54.790861,62 53,63.790861 53,66 C53,68.209139 54.790861,70 57,70 Z M86,92 C88.7614237,92 91,89.7614237 91,87 C91,84.2385763 88.7614237,82 86,82 C83.2385763,82 81,84.2385763 81,87 C81,89.7614237 83.2385763,92 86,92 Z M32,63 C34.7614237,63 37,60.7614237 37,58 C37,55.2385763 34.7614237,53 32,53 C29.2385763,53 27,55.2385763 27,58 C27,60.7614237 29.2385763,63 32,63 Z M89,50 C91.7614237,50 94,47.7614237 94,45 C94,42.2385763 91.7614237,40 89,40 C86.2385763,40 84,42.2385763 84,45 C84,47.7614237 86.2385763,50 89,50 Z M80,29 C81.1045695,29 82,28.1045695 82,27 C82,25.8954305 81.1045695,25 80,25 C78.8954305,25 78,25.8954305 78,27 C78,28.1045695 78.8954305,29 80,29 Z M60,91 C61.1045695,91 62,90.1045695 62,89 C62,87.8954305 61.1045695,87 60,87 C58.8954305,87 58,87.8954305 58,89 C58,90.1045695 58.8954305,91 60,91 Z M35,41 C36.1045695,41 37,40.1045695 37,39 C37,37.8954305 36.1045695,37 35,37 C33.8954305,37 33,37.8954305 33,39 C33,40.1045695 33.8954305,41 35,41 Z M12,60 C13.1045695,60 14,59.1045695 14,58 C14,56.8954305 13.1045695,56 12,56 C10.8954305,56 10,56.8954305 10,58 C10,59.1045695 10.8954305,60 12,60 Z" id="path-4" style="fill: rgb(255, 222, 21);"/>
    </g>
  </g>
  <g id="g-9" stroke="none" stroke-width="1" fill="none" fill-rule="evenodd" transform="matrix(1.1533570289611816, 0, 0, 1.2192940711975098, 11.086055755615241, 145.0997009277344)" style="">
    <g id="g-10" fill="#000000">
      <path d="M11,18 C14.8659932,18 18,14.8659932 18,11 C18,7.13400675 14.8659932,4 11,4 C7.13400675,4 4,7.13400675 4,11 C4,14.8659932 7.13400675,18 11,18 Z M59,43 C62.8659932,43 66,39.8659932 66,36 C66,32.1340068 62.8659932,29 59,29 C55.1340068,29 52,32.1340068 52,36 C52,39.8659932 55.1340068,43 59,43 Z M16,36 C17.6568542,36 19,34.6568542 19,33 C19,31.3431458 17.6568542,30 16,30 C14.3431458,30 13,31.3431458 13,33 C13,34.6568542 14.3431458,36 16,36 Z M79,67 C80.6568542,67 82,65.6568542 82,64 C82,62.3431458 80.6568542,61 79,61 C77.3431458,61 76,62.3431458 76,64 C76,65.6568542 77.3431458,67 79,67 Z M34,90 C35.6568542,90 37,88.6568542 37,87 C37,85.3431458 35.6568542,84 34,84 C32.3431458,84 31,85.3431458 31,87 C31,88.6568542 32.3431458,90 34,90 Z M90,14 C91.6568542,14 93,12.6568542 93,11 C93,9.34314575 91.6568542,8 90,8 C88.3431458,8 87,9.34314575 87,11 C87,12.6568542 88.3431458,14 90,14 Z M12,86 C14.209139,86 16,84.209139 16,82 C16,79.790861 14.209139,78 12,78 C9.790861,78 8,79.790861 8,82 C8,84.209139 9.790861,86 12,86 Z M40,21 C42.209139,21 44,19.209139 44,17 C44,14.790861 42.209139,13 40,13 C37.790861,13 36,14.790861 36,17 C36,19.209139 37.790861,21 40,21 Z M63,10 C65.7614237,10 68,7.76142375 68,5 C68,2.23857625 65.7614237,0 63,0 C60.2385763,0 58,2.23857625 58,5 C58,7.76142375 60.2385763,10 63,10 Z M57,70 C59.209139,70 61,68.209139 61,66 C61,63.790861 59.209139,62 57,62 C54.790861,62 53,63.790861 53,66 C53,68.209139 54.790861,70 57,70 Z M86,92 C88.7614237,92 91,89.7614237 91,87 C91,84.2385763 88.7614237,82 86,82 C83.2385763,82 81,84.2385763 81,87 C81,89.7614237 83.2385763,92 86,92 Z M32,63 C34.7614237,63 37,60.7614237 37,58 C37,55.2385763 34.7614237,53 32,53 C29.2385763,53 27,55.2385763 27,58 C27,60.7614237 29.2385763,63 32,63 Z M89,50 C91.7614237,50 94,47.7614237 94,45 C94,42.2385763 91.7614237,40 89,40 C86.2385763,40 84,42.2385763 84,45 C84,47.7614237 86.2385763,50 89,50 Z M80,29 C81.1045695,29 82,28.1045695 82,27 C82,25.8954305 81.1045695,25 80,25 C78.8954305,25 78,25.8954305 78,27 C78,28.1045695 78.8954305,29 80,29 Z M60,91 C61.1045695,91 62,90.1045695 62,89 C62,87.8954305 61.1045695,87 60,87 C58.8954305,87 58,87.8954305 58,89 C58,90.1045695 58.8954305,91 60,91 Z M35,41 C36.1045695,41 37,40.1045695 37,39 C37,37.8954305 36.1045695,37 35,37 C33.8954305,37 33,37.8954305 33,39 C33,40.1045695 33.8954305,41 35,41 Z M12,60 C13.1045695,60 14,59.1045695 14,58 C14,56.8954305 13.1045695,56 12,56 C10.8954305,56 10,56.8954305 10,58 C10,59.1045695 10.8954305,60 12,60 Z" id="path-5"/>
    </g>
  </g>
  <g id="g-11" stroke="none" stroke-width="1" fill="none" fill-rule="evenodd" transform="matrix(1.3228240013122559, 0, 0, 1.1976709365844727, 154.4296417236328, 8.10293006896974)" style="">
    <g id="g-12" fill="#000000">
      <path d="M11,18 C14.8659932,18 18,14.8659932 18,11 C18,7.13400675 14.8659932,4 11,4 C7.13400675,4 4,7.13400675 4,11 C4,14.8659932 7.13400675,18 11,18 Z M59,43 C62.8659932,43 66,39.8659932 66,36 C66,32.1340068 62.8659932,29 59,29 C55.1340068,29 52,32.1340068 52,36 C52,39.8659932 55.1340068,43 59,43 Z M16,36 C17.6568542,36 19,34.6568542 19,33 C19,31.3431458 17.6568542,30 16,30 C14.3431458,30 13,31.3431458 13,33 C13,34.6568542 14.3431458,36 16,36 Z M79,67 C80.6568542,67 82,65.6568542 82,64 C82,62.3431458 80.6568542,61 79,61 C77.3431458,61 76,62.3431458 76,64 C76,65.6568542 77.3431458,67 79,67 Z M34,90 C35.6568542,90 37,88.6568542 37,87 C37,85.3431458 35.6568542,84 34,84 C32.3431458,84 31,85.3431458 31,87 C31,88.6568542 32.3431458,90 34,90 Z M90,14 C91.6568542,14 93,12.6568542 93,11 C93,9.34314575 91.6568542,8 90,8 C88.3431458,8 87,9.34314575 87,11 C87,12.6568542 88.3431458,14 90,14 Z M12,86 C14.209139,86 16,84.209139 16,82 C16,79.790861 14.209139,78 12,78 C9.790861,78 8,79.790861 8,82 C8,84.209139 9.790861,86 12,86 Z M40,21 C42.209139,21 44,19.209139 44,17 C44,14.790861 42.209139,13 40,13 C37.790861,13 36,14.790861 36,17 C36,19.209139 37.790861,21 40,21 Z M63,10 C65.7614237,10 68,7.76142375 68,5 C68,2.23857625 65.7614237,0 63,0 C60.2385763,0 58,2.23857625 58,5 C58,7.76142375 60.2385763,10 63,10 Z M57,70 C59.209139,70 61,68.209139 61,66 C61,63.790861 59.209139,62 57,62 C54.790861,62 53,63.790861 53,66 C53,68.209139 54.790861,70 57,70 Z M86,92 C88.7614237,92 91,89.7614237 91,87 C91,84.2385763 88.7614237,82 86,82 C83.2385763,82 81,84.2385763 81,87 C81,89.7614237 83.2385763,92 86,92 Z M32,63 C34.7614237,63 37,60.7614237 37,58 C37,55.2385763 34.7614237,53 32,53 C29.2385763,53 27,55.2385763 27,58 C27,60.7614237 29.2385763,63 32,63 Z M89,50 C91.7614237,50 94,47.7614237 94,45 C94,42.2385763 91.7614237,40 89,40 C86.2385763,40 84,42.2385763 84,45 C84,47.7614237 86.2385763,50 89,50 Z M80,29 C81.1045695,29 82,28.1045695 82,27 C82,25.8954305 81.1045695,25 80,25 C78.8954305,25 78,25.8954305 78,27 C78,28.1045695 78.8954305,29 80,29 Z M60,91 C61.1045695,91 62,90.1045695 62,89 C62,87.8954305 61.1045695,87 60,87 C58.8954305,87 58,87.8954305 58,89 C58,90.1045695 58.8954305,91 60,91 Z M35,41 C36.1045695,41 37,40.1045695 37,39 C37,37.8954305 36.1045695,37 35,37 C33.8954305,37 33,37.8954305 33,39 C33,40.1045695 33.8954305,41 35,41 Z M12,60 C13.1045695,60 14,59.1045695 14,58 C14,56.8954305 13.1045695,56 12,56 C10.8954305,56 10,56.8954305 10,58 C10,59.1045695 10.8954305,60 12,60 Z" id="path-6" style="fill: rgb(204, 0, 0);"/>
    </g>
  </g>
  <g id="g-13" stroke="none" stroke-width="1" fill="none" fill-rule="evenodd" transform="matrix(1.3228230476379395, 0, 0, 1.2769570350646973, 136.06329345703125, 5.9878029823303365)" style="">
    <g id="g-14" fill="#000000">
      <path d="M11,18 C14.8659932,18 18,14.8659932 18,11 C18,7.13400675 14.8659932,4 11,4 C7.13400675,4 4,7.13400675 4,11 C4,14.8659932 7.13400675,18 11,18 Z M59,43 C62.8659932,43 66,39.8659932 66,36 C66,32.1340068 62.8659932,29 59,29 C55.1340068,29 52,32.1340068 52,36 C52,39.8659932 55.1340068,43 59,43 Z M16,36 C17.6568542,36 19,34.6568542 19,33 C19,31.3431458 17.6568542,30 16,30 C14.3431458,30 13,31.3431458 13,33 C13,34.6568542 14.3431458,36 16,36 Z M79,67 C80.6568542,67 82,65.6568542 82,64 C82,62.3431458 80.6568542,61 79,61 C77.3431458,61 76,62.3431458 76,64 C76,65.6568542 77.3431458,67 79,67 Z M34,90 C35.6568542,90 37,88.6568542 37,87 C37,85.3431458 35.6568542,84 34,84 C32.3431458,84 31,85.3431458 31,87 C31,88.6568542 32.3431458,90 34,90 Z M90,14 C91.6568542,14 93,12.6568542 93,11 C93,9.34314575 91.6568542,8 90,8 C88.3431458,8 87,9.34314575 87,11 C87,12.6568542 88.3431458,14 90,14 Z M12,86 C14.209139,86 16,84.209139 16,82 C16,79.790861 14.209139,78 12,78 C9.790861,78 8,79.790861 8,82 C8,84.209139 9.790861,86 12,86 Z M40,21 C42.209139,21 44,19.209139 44,17 C44,14.790861 42.209139,13 40,13 C37.790861,13 36,14.790861 36,17 C36,19.209139 37.790861,21 40,21 Z M63,10 C65.7614237,10 68,7.76142375 68,5 C68,2.23857625 65.7614237,0 63,0 C60.2385763,0 58,2.23857625 58,5 C58,7.76142375 60.2385763,10 63,10 Z M57,70 C59.209139,70 61,68.209139 61,66 C61,63.790861 59.209139,62 57,62 C54.790861,62 53,63.790861 53,66 C53,68.209139 54.790861,70 57,70 Z M86,92 C88.7614237,92 91,89.7614237 91,87 C91,84.2385763 88.7614237,82 86,82 C83.2385763,82 81,84.2385763 81,87 C81,89.7614237 83.2385763,92 86,92 Z M32,63 C34.7614237,63 37,60.7614237 37,58 C37,55.2385763 34.7614237,53 32,53 C29.2385763,53 27,55.2385763 27,58 C27,60.7614237 29.2385763,63 32,63 Z M89,50 C91.7614237,50 94,47.7614237 94,45 C94,42.2385763 91.7614237,40 89,40 C86.2385763,40 84,42.2385763 84,45 C84,47.7614237 86.2385763,50 89,50 Z M80,29 C81.1045695,29 82,28.1045695 82,27 C82,25.8954305 81.1045695,25 80,25 C78.8954305,25 78,25.8954305 78,27 C78,28.1045695 78.8954305,29 80,29 Z M60,91 C61.1045695,91 62,90.1045695 62,89 C62,87.8954305 61.1045695,87 60,87 C58.8954305,87 58,87.8954305 58,89 C58,90.1045695 58.8954305,91 60,91 Z M35,41 C36.1045695,41 37,40.1045695 37,39 C37,37.8954305 36.1045695,37 35,37 C33.8954305,37 33,37.8954305 33,39 C33,40.1045695 33.8954305,41 35,41 Z M12,60 C13.1045695,60 14,59.1045695 14,58 C14,56.8954305 13.1045695,56 12,56 C10.8954305,56 10,56.8954305 10,58 C10,59.1045695 10.8954305,60 12,60 Z" id="path-7" style="fill: rgb(255, 222, 21);"/>
    </g>
  </g>
  <g id="g-15" stroke="none" stroke-width="1" fill="none" fill-rule="evenodd" transform="matrix(1.1533570289611816, 0, 0, 1.2192940711975098, 151.00648498535156, 25.073175430297866)" style="">
    <g id="g-16" fill="#000000">
      <path d="M11,18 C14.8659932,18 18,14.8659932 18,11 C18,7.13400675 14.8659932,4 11,4 C7.13400675,4 4,7.13400675 4,11 C4,14.8659932 7.13400675,18 11,18 Z M59,43 C62.8659932,43 66,39.8659932 66,36 C66,32.1340068 62.8659932,29 59,29 C55.1340068,29 52,32.1340068 52,36 C52,39.8659932 55.1340068,43 59,43 Z M16,36 C17.6568542,36 19,34.6568542 19,33 C19,31.3431458 17.6568542,30 16,30 C14.3431458,30 13,31.3431458 13,33 C13,34.6568542 14.3431458,36 16,36 Z M79,67 C80.6568542,67 82,65.6568542 82,64 C82,62.3431458 80.6568542,61 79,61 C77.3431458,61 76,62.3431458 76,64 C76,65.6568542 77.3431458,67 79,67 Z M34,90 C35.6568542,90 37,88.6568542 37,87 C37,85.3431458 35.6568542,84 34,84 C32.3431458,84 31,85.3431458 31,87 C31,88.6568542 32.3431458,90 34,90 Z M90,14 C91.6568542,14 93,12.6568542 93,11 C93,9.34314575 91.6568542,8 90,8 C88.3431458,8 87,9.34314575 87,11 C87,12.6568542 88.3431458,14 90,14 Z M12,86 C14.209139,86 16,84.209139 16,82 C16,79.790861 14.209139,78 12,78 C9.790861,78 8,79.790861 8,82 C8,84.209139 9.790861,86 12,86 Z M40,21 C42.209139,21 44,19.209139 44,17 C44,14.790861 42.209139,13 40,13 C37.790861,13 36,14.790861 36,17 C36,19.209139 37.790861,21 40,21 Z M63,10 C65.7614237,10 68,7.76142375 68,5 C68,2.23857625 65.7614237,0 63,0 C60.2385763,0 58,2.23857625 58,5 C58,7.76142375 60.2385763,10 63,10 Z M57,70 C59.209139,70 61,68.209139 61,66 C61,63.790861 59.209139,62 57,62 C54.790861,62 53,63.790861 53,66 C53,68.209139 54.790861,70 57,70 Z M86,92 C88.7614237,92 91,89.7614237 91,87 C91,84.2385763 88.7614237,82 86,82 C83.2385763,82 81,84.2385763 81,87 C81,89.7614237 83.2385763,92 86,92 Z M32,63 C34.7614237,63 37,60.7614237 37,58 C37,55.2385763 34.7614237,53 32,53 C29.2385763,53 27,55.2385763 27,58 C27,60.7614237 29.2385763,63 32,63 Z M89,50 C91.7614237,50 94,47.7614237 94,45 C94,42.2385763 91.7614237,40 89,40 C86.2385763,40 84,42.2385763 84,45 C84,47.7614237 86.2385763,50 89,50 Z M80,29 C81.1045695,29 82,28.1045695 82,27 C82,25.8954305 81.1045695,25 80,25 C78.8954305,25 78,25.8954305 78,27 C78,28.1045695 78.8954305,29 80,29 Z M60,91 C61.1045695,91 62,90.1045695 62,89 C62,87.8954305 61.1045695,87 60,87 C58.8954305,87 58,87.8954305 58,89 C58,90.1045695 58.8954305,91 60,91 Z M35,41 C36.1045695,41 37,40.1045695 37,39 C37,37.8954305 36.1045695,37 35,37 C33.8954305,37 33,37.8954305 33,39 C33,40.1045695 33.8954305,41 35,41 Z M12,60 C13.1045695,60 14,59.1045695 14,58 C14,56.8954305 13.1045695,56 12,56 C10.8954305,56 10,56.8954305 10,58 C10,59.1045695 10.8954305,60 12,60 Z" id="path-8"/>
    </g>
  </g>
  <g id="g-17" stroke="none" stroke-width="1" fill="none" fill-rule="evenodd" transform="matrix(1.3228240013122559, 0, 0, 1.1976709365844727, 151.77711486816406, 128.79258728027347)" style="">
    <g id="g-18" fill="#000000">
      <path d="M11,18 C14.8659932,18 18,14.8659932 18,11 C18,7.13400675 14.8659932,4 11,4 C7.13400675,4 4,7.13400675 4,11 C4,14.8659932 7.13400675,18 11,18 Z M59,43 C62.8659932,43 66,39.8659932 66,36 C66,32.1340068 62.8659932,29 59,29 C55.1340068,29 52,32.1340068 52,36 C52,39.8659932 55.1340068,43 59,43 Z M16,36 C17.6568542,36 19,34.6568542 19,33 C19,31.3431458 17.6568542,30 16,30 C14.3431458,30 13,31.3431458 13,33 C13,34.6568542 14.3431458,36 16,36 Z M79,67 C80.6568542,67 82,65.6568542 82,64 C82,62.3431458 80.6568542,61 79,61 C77.3431458,61 76,62.3431458 76,64 C76,65.6568542 77.3431458,67 79,67 Z M34,90 C35.6568542,90 37,88.6568542 37,87 C37,85.3431458 35.6568542,84 34,84 C32.3431458,84 31,85.3431458 31,87 C31,88.6568542 32.3431458,90 34,90 Z M90,14 C91.6568542,14 93,12.6568542 93,11 C93,9.34314575 91.6568542,8 90,8 C88.3431458,8 87,9.34314575 87,11 C87,12.6568542 88.3431458,14 90,14 Z M12,86 C14.209139,86 16,84.209139 16,82 C16,79.790861 14.209139,78 12,78 C9.790861,78 8,79.790861 8,82 C8,84.209139 9.790861,86 12,86 Z M40,21 C42.209139,21 44,19.209139 44,17 C44,14.790861 42.209139,13 40,13 C37.790861,13 36,14.790861 36,17 C36,19.209139 37.790861,21 40,21 Z M63,10 C65.7614237,10 68,7.76142375 68,5 C68,2.23857625 65.7614237,0 63,0 C60.2385763,0 58,2.23857625 58,5 C58,7.76142375 60.2385763,10 63,10 Z M57,70 C59.209139,70 61,68.209139 61,66 C61,63.790861 59.209139,62 57,62 C54.790861,62 53,63.790861 53,66 C53,68.209139 54.790861,70 57,70 Z M86,92 C88.7614237,92 91,89.7614237 91,87 C91,84.2385763 88.7614237,82 86,82 C83.2385763,82 81,84.2385763 81,87 C81,89.7614237 83.2385763,92 86,92 Z M32,63 C34.7614237,63 37,60.7614237 37,58 C37,55.2385763 34.7614237,53 32,53 C29.2385763,53 27,55.2385763 27,58 C27,60.7614237 29.2385763,63 32,63 Z M89,50 C91.7614237,50 94,47.7614237 94,45 C94,42.2385763 91.7614237,40 89,40 C86.2385763,40 84,42.2385763 84,45 C84,47.7614237 86.2385763,50 89,50 Z M80,29 C81.1045695,29 82,28.1045695 82,27 C82,25.8954305 81.1045695,25 80,25 C78.8954305,25 78,25.8954305 78,27 C78,28.1045695 78.8954305,29 80,29 Z M60,91 C61.1045695,91 62,90.1045695 62,89 C62,87.8954305 61.1045695,87 60,87 C58.8954305,87 58,87.8954305 58,89 C58,90.1045695 58.8954305,91 60,91 Z M35,41 C36.1045695,41 37,40.1045695 37,39 C37,37.8954305 36.1045695,37 35,37 C33.8954305,37 33,37.8954305 33,39 C33,40.1045695 33.8954305,41 35,41 Z M12,60 C13.1045695,60 14,59.1045695 14,58 C14,56.8954305 13.1045695,56 12,56 C10.8954305,56 10,56.8954305 10,58 C10,59.1045695 10.8954305,60 12,60 Z" id="path-9" style="fill: rgb(204, 0, 0);"/>
    </g>
  </g>
  <g id="g-19" stroke="none" stroke-width="1" fill="none" fill-rule="evenodd" transform="matrix(1.3228230476379395, 0, 0, 1.2769570350646973, 133.4107666015625, 126.67746734619143)" style="">
    <g id="g-20" fill="#000000">
      <path d="M11,18 C14.8659932,18 18,14.8659932 18,11 C18,7.13400675 14.8659932,4 11,4 C7.13400675,4 4,7.13400675 4,11 C4,14.8659932 7.13400675,18 11,18 Z M59,43 C62.8659932,43 66,39.8659932 66,36 C66,32.1340068 62.8659932,29 59,29 C55.1340068,29 52,32.1340068 52,36 C52,39.8659932 55.1340068,43 59,43 Z M16,36 C17.6568542,36 19,34.6568542 19,33 C19,31.3431458 17.6568542,30 16,30 C14.3431458,30 13,31.3431458 13,33 C13,34.6568542 14.3431458,36 16,36 Z M79,67 C80.6568542,67 82,65.6568542 82,64 C82,62.3431458 80.6568542,61 79,61 C77.3431458,61 76,62.3431458 76,64 C76,65.6568542 77.3431458,67 79,67 Z M34,90 C35.6568542,90 37,88.6568542 37,87 C37,85.3431458 35.6568542,84 34,84 C32.3431458,84 31,85.3431458 31,87 C31,88.6568542 32.3431458,90 34,90 Z M90,14 C91.6568542,14 93,12.6568542 93,11 C93,9.34314575 91.6568542,8 90,8 C88.3431458,8 87,9.34314575 87,11 C87,12.6568542 88.3431458,14 90,14 Z M12,86 C14.209139,86 16,84.209139 16,82 C16,79.790861 14.209139,78 12,78 C9.790861,78 8,79.790861 8,82 C8,84.209139 9.790861,86 12,86 Z M40,21 C42.209139,21 44,19.209139 44,17 C44,14.790861 42.209139,13 40,13 C37.790861,13 36,14.790861 36,17 C36,19.209139 37.790861,21 40,21 Z M63,10 C65.7614237,10 68,7.76142375 68,5 C68,2.23857625 65.7614237,0 63,0 C60.2385763,0 58,2.23857625 58,5 C58,7.76142375 60.2385763,10 63,10 Z M57,70 C59.209139,70 61,68.209139 61,66 C61,63.790861 59.209139,62 57,62 C54.790861,62 53,63.790861 53,66 C53,68.209139 54.790861,70 57,70 Z M86,92 C88.7614237,92 91,89.7614237 91,87 C91,84.2385763 88.7614237,82 86,82 C83.2385763,82 81,84.2385763 81,87 C81,89.7614237 83.2385763,92 86,92 Z M32,63 C34.7614237,63 37,60.7614237 37,58 C37,55.2385763 34.7614237,53 32,53 C29.2385763,53 27,55.2385763 27,58 C27,60.7614237 29.2385763,63 32,63 Z M89,50 C91.7614237,50 94,47.7614237 94,45 C94,42.2385763 91.7614237,40 89,40 C86.2385763,40 84,42.2385763 84,45 C84,47.7614237 86.2385763,50 89,50 Z M80,29 C81.1045695,29 82,28.1045695 82,27 C82,25.8954305 81.1045695,25 80,25 C78.8954305,25 78,25.8954305 78,27 C78,28.1045695 78.8954305,29 80,29 Z M60,91 C61.1045695,91 62,90.1045695 62,89 C62,87.8954305 61.1045695,87 60,87 C58.8954305,87 58,87.8954305 58,89 C58,90.1045695 58.8954305,91 60,91 Z M35,41 C36.1045695,41 37,40.1045695 37,39 C37,37.8954305 36.1045695,37 35,37 C33.8954305,37 33,37.8954305 33,39 C33,40.1045695 33.8954305,41 35,41 Z M12,60 C13.1045695,60 14,59.1045695 14,58 C14,56.8954305 13.1045695,56 12,56 C10.8954305,56 10,56.8954305 10,58 C10,59.1045695 10.8954305,60 12,60 Z" id="path-10" style="fill: rgb(255, 222, 21);"/>
    </g>
  </g>
  <g id="g-21" stroke="none" stroke-width="1" fill="none" fill-rule="evenodd" transform="matrix(1.1533570289611816, 0, 0, 1.2192940711975098, 148.35397338867188, 145.7628326416016)" style="">
    <g id="g-22" fill="#000000">
      <path d="M11,18 C14.8659932,18 18,14.8659932 18,11 C18,7.13400675 14.8659932,4 11,4 C7.13400675,4 4,7.13400675 4,11 C4,14.8659932 7.13400675,18 11,18 Z M59,43 C62.8659932,43 66,39.8659932 66,36 C66,32.1340068 62.8659932,29 59,29 C55.1340068,29 52,32.1340068 52,36 C52,39.8659932 55.1340068,43 59,43 Z M16,36 C17.6568542,36 19,34.6568542 19,33 C19,31.3431458 17.6568542,30 16,30 C14.3431458,30 13,31.3431458 13,33 C13,34.6568542 14.3431458,36 16,36 Z M79,67 C80.6568542,67 82,65.6568542 82,64 C82,62.3431458 80.6568542,61 79,61 C77.3431458,61 76,62.3431458 76,64 C76,65.6568542 77.3431458,67 79,67 Z M34,90 C35.6568542,90 37,88.6568542 37,87 C37,85.3431458 35.6568542,84 34,84 C32.3431458,84 31,85.3431458 31,87 C31,88.6568542 32.3431458,90 34,90 Z M90,14 C91.6568542,14 93,12.6568542 93,11 C93,9.34314575 91.6568542,8 90,8 C88.3431458,8 87,9.34314575 87,11 C87,12.6568542 88.3431458,14 90,14 Z M12,86 C14.209139,86 16,84.209139 16,82 C16,79.790861 14.209139,78 12,78 C9.790861,78 8,79.790861 8,82 C8,84.209139 9.790861,86 12,86 Z M40,21 C42.209139,21 44,19.209139 44,17 C44,14.790861 42.209139,13 40,13 C37.790861,13 36,14.790861 36,17 C36,19.209139 37.790861,21 40,21 Z M63,10 C65.7614237,10 68,7.76142375 68,5 C68,2.23857625 65.7614237,0 63,0 C60.2385763,0 58,2.23857625 58,5 C58,7.76142375 60.2385763,10 63,10 Z M57,70 C59.209139,70 61,68.209139 61,66 C61,63.790861 59.209139,62 57,62 C54.790861,62 53,63.790861 53,66 C53,68.209139 54.790861,70 57,70 Z M86,92 C88.7614237,92 91,89.7614237 91,87 C91,84.2385763 88.7614237,82 86,82 C83.2385763,82 81,84.2385763 81,87 C81,89.7614237 83.2385763,92 86,92 Z M32,63 C34.7614237,63 37,60.7614237 37,58 C37,55.2385763 34.7614237,53 32,53 C29.2385763,53 27,55.2385763 27,58 C27,60.7614237 29.2385763,63 32,63 Z M89,50 C91.7614237,50 94,47.7614237 94,45 C94,42.2385763 91.7614237,40 89,40 C86.2385763,40 84,42.2385763 84,45 C84,47.7614237 86.2385763,50 89,50 Z M80,29 C81.1045695,29 82,28.1045695 82,27 C82,25.8954305 81.1045695,25 80,25 C78.8954305,25 78,25.8954305 78,27 C78,28.1045695 78.8954305,29 80,29 Z M60,91 C61.1045695,91 62,90.1045695 62,89 C62,87.8954305 61.1045695,87 60,87 C58.8954305,87 58,87.8954305 58,89 C58,90.1045695 58.8954305,91 60,91 Z M35,41 C36.1045695,41 37,40.1045695 37,39 C37,37.8954305 36.1045695,37 35,37 C33.8954305,37 33,37.8954305 33,39 C33,40.1045695 33.8954305,41 35,41 Z M12,60 C13.1045695,60 14,59.1045695 14,58 C14,56.8954305 13.1045695,56 12,56 C10.8954305,56 10,56.8954305 10,58 C10,59.1045695 10.8954305,60 12,60 Z" id="path-11"/>
    </g>
  </g>
  <g id="g-23" stroke="none" stroke-width="1" fill="none" fill-rule="evenodd" transform="matrix(1.3228240013122559, 0, 0, 1.1976709365844727, 291.0343933105469, 2.797898054122939)" style="">
    <g id="g-24" fill="#000000">
      <path d="M11,18 C14.8659932,18 18,14.8659932 18,11 C18,7.13400675 14.8659932,4 11,4 C7.13400675,4 4,7.13400675 4,11 C4,14.8659932 7.13400675,18 11,18 Z M59,43 C62.8659932,43 66,39.8659932 66,36 C66,32.1340068 62.8659932,29 59,29 C55.1340068,29 52,32.1340068 52,36 C52,39.8659932 55.1340068,43 59,43 Z M16,36 C17.6568542,36 19,34.6568542 19,33 C19,31.3431458 17.6568542,30 16,30 C14.3431458,30 13,31.3431458 13,33 C13,34.6568542 14.3431458,36 16,36 Z M79,67 C80.6568542,67 82,65.6568542 82,64 C82,62.3431458 80.6568542,61 79,61 C77.3431458,61 76,62.3431458 76,64 C76,65.6568542 77.3431458,67 79,67 Z M34,90 C35.6568542,90 37,88.6568542 37,87 C37,85.3431458 35.6568542,84 34,84 C32.3431458,84 31,85.3431458 31,87 C31,88.6568542 32.3431458,90 34,90 Z M90,14 C91.6568542,14 93,12.6568542 93,11 C93,9.34314575 91.6568542,8 90,8 C88.3431458,8 87,9.34314575 87,11 C87,12.6568542 88.3431458,14 90,14 Z M12,86 C14.209139,86 16,84.209139 16,82 C16,79.790861 14.209139,78 12,78 C9.790861,78 8,79.790861 8,82 C8,84.209139 9.790861,86 12,86 Z M40,21 C42.209139,21 44,19.209139 44,17 C44,14.790861 42.209139,13 40,13 C37.790861,13 36,14.790861 36,17 C36,19.209139 37.790861,21 40,21 Z M63,10 C65.7614237,10 68,7.76142375 68,5 C68,2.23857625 65.7614237,0 63,0 C60.2385763,0 58,2.23857625 58,5 C58,7.76142375 60.2385763,10 63,10 Z M57,70 C59.209139,70 61,68.209139 61,66 C61,63.790861 59.209139,62 57,62 C54.790861,62 53,63.790861 53,66 C53,68.209139 54.790861,70 57,70 Z M86,92 C88.7614237,92 91,89.7614237 91,87 C91,84.2385763 88.7614237,82 86,82 C83.2385763,82 81,84.2385763 81,87 C81,89.7614237 83.2385763,92 86,92 Z M32,63 C34.7614237,63 37,60.7614237 37,58 C37,55.2385763 34.7614237,53 32,53 C29.2385763,53 27,55.2385763 27,58 C27,60.7614237 29.2385763,63 32,63 Z M89,50 C91.7614237,50 94,47.7614237 94,45 C94,42.2385763 91.7614237,40 89,40 C86.2385763,40 84,42.2385763 84,45 C84,47.7614237 86.2385763,50 89,50 Z M80,29 C81.1045695,29 82,28.1045695 82,27 C82,25.8954305 81.1045695,25 80,25 C78.8954305,25 78,25.8954305 78,27 C78,28.1045695 78.8954305,29 80,29 Z M60,91 C61.1045695,91 62,90.1045695 62,89 C62,87.8954305 61.1045695,87 60,87 C58.8954305,87 58,87.8954305 58,89 C58,90.1045695 58.8954305,91 60,91 Z M35,41 C36.1045695,41 37,40.1045695 37,39 C37,37.8954305 36.1045695,37 35,37 C33.8954305,37 33,37.8954305 33,39 C33,40.1045695 33.8954305,41 35,41 Z M12,60 C13.1045695,60 14,59.1045695 14,58 C14,56.8954305 13.1045695,56 12,56 C10.8954305,56 10,56.8954305 10,58 C10,59.1045695 10.8954305,60 12,60 Z" id="path-12" style="fill: rgb(204, 0, 0);"/>
    </g>
  </g>
  <g id="g-25" stroke="none" stroke-width="1" fill="none" fill-rule="evenodd" transform="matrix(1.3228230476379395, 0, 0, 1.2769570350646973, 272.6680603027344, 0.6827699542045735)" style="">
    <g id="g-26" fill="#000000">
      <path d="M11,18 C14.8659932,18 18,14.8659932 18,11 C18,7.13400675 14.8659932,4 11,4 C7.13400675,4 4,7.13400675 4,11 C4,14.8659932 7.13400675,18 11,18 Z M59,43 C62.8659932,43 66,39.8659932 66,36 C66,32.1340068 62.8659932,29 59,29 C55.1340068,29 52,32.1340068 52,36 C52,39.8659932 55.1340068,43 59,43 Z M16,36 C17.6568542,36 19,34.6568542 19,33 C19,31.3431458 17.6568542,30 16,30 C14.3431458,30 13,31.3431458 13,33 C13,34.6568542 14.3431458,36 16,36 Z M79,67 C80.6568542,67 82,65.6568542 82,64 C82,62.3431458 80.6568542,61 79,61 C77.3431458,61 76,62.3431458 76,64 C76,65.6568542 77.3431458,67 79,67 Z M34,90 C35.6568542,90 37,88.6568542 37,87 C37,85.3431458 35.6568542,84 34,84 C32.3431458,84 31,85.3431458 31,87 C31,88.6568542 32.3431458,90 34,90 Z M90,14 C91.6568542,14 93,12.6568542 93,11 C93,9.34314575 91.6568542,8 90,8 C88.3431458,8 87,9.34314575 87,11 C87,12.6568542 88.3431458,14 90,14 Z M12,86 C14.209139,86 16,84.209139 16,82 C16,79.790861 14.209139,78 12,78 C9.790861,78 8,79.790861 8,82 C8,84.209139 9.790861,86 12,86 Z M40,21 C42.209139,21 44,19.209139 44,17 C44,14.790861 42.209139,13 40,13 C37.790861,13 36,14.790861 36,17 C36,19.209139 37.790861,21 40,21 Z M63,10 C65.7614237,10 68,7.76142375 68,5 C68,2.23857625 65.7614237,0 63,0 C60.2385763,0 58,2.23857625 58,5 C58,7.76142375 60.2385763,10 63,10 Z M57,70 C59.209139,70 61,68.209139 61,66 C61,63.790861 59.209139,62 57,62 C54.790861,62 53,63.790861 53,66 C53,68.209139 54.790861,70 57,70 Z M86,92 C88.7614237,92 91,89.7614237 91,87 C91,84.2385763 88.7614237,82 86,82 C83.2385763,82 81,84.2385763 81,87 C81,89.7614237 83.2385763,92 86,92 Z M32,63 C34.7614237,63 37,60.7614237 37,58 C37,55.2385763 34.7614237,53 32,53 C29.2385763,53 27,55.2385763 27,58 C27,60.7614237 29.2385763,63 32,63 Z M89,50 C91.7614237,50 94,47.7614237 94,45 C94,42.2385763 91.7614237,40 89,40 C86.2385763,40 84,42.2385763 84,45 C84,47.7614237 86.2385763,50 89,50 Z M80,29 C81.1045695,29 82,28.1045695 82,27 C82,25.8954305 81.1045695,25 80,25 C78.8954305,25 78,25.8954305 78,27 C78,28.1045695 78.8954305,29 80,29 Z M60,91 C61.1045695,91 62,90.1045695 62,89 C62,87.8954305 61.1045695,87 60,87 C58.8954305,87 58,87.8954305 58,89 C58,90.1045695 58.8954305,91 60,91 Z M35,41 C36.1045695,41 37,40.1045695 37,39 C37,37.8954305 36.1045695,37 35,37 C33.8954305,37 33,37.8954305 33,39 C33,40.1045695 33.8954305,41 35,41 Z M12,60 C13.1045695,60 14,59.1045695 14,58 C14,56.8954305 13.1045695,56 12,56 C10.8954305,56 10,56.8954305 10,58 C10,59.1045695 10.8954305,60 12,60 Z" id="path-13" style="fill: rgb(255, 222, 21);"/>
    </g>
  </g>
  <g id="g-27" stroke="none" stroke-width="1" fill="none" fill-rule="evenodd" transform="matrix(1.1533570289611816, 0, 0, 1.2192940711975098, 287.6112365722656, 19.768135070800795)" style="">
    <g id="g-28" fill="#000000">
      <path d="M11,18 C14.8659932,18 18,14.8659932 18,11 C18,7.13400675 14.8659932,4 11,4 C7.13400675,4 4,7.13400675 4,11 C4,14.8659932 7.13400675,18 11,18 Z M59,43 C62.8659932,43 66,39.8659932 66,36 C66,32.1340068 62.8659932,29 59,29 C55.1340068,29 52,32.1340068 52,36 C52,39.8659932 55.1340068,43 59,43 Z M16,36 C17.6568542,36 19,34.6568542 19,33 C19,31.3431458 17.6568542,30 16,30 C14.3431458,30 13,31.3431458 13,33 C13,34.6568542 14.3431458,36 16,36 Z M79,67 C80.6568542,67 82,65.6568542 82,64 C82,62.3431458 80.6568542,61 79,61 C77.3431458,61 76,62.3431458 76,64 C76,65.6568542 77.3431458,67 79,67 Z M34,90 C35.6568542,90 37,88.6568542 37,87 C37,85.3431458 35.6568542,84 34,84 C32.3431458,84 31,85.3431458 31,87 C31,88.6568542 32.3431458,90 34,90 Z M90,14 C91.6568542,14 93,12.6568542 93,11 C93,9.34314575 91.6568542,8 90,8 C88.3431458,8 87,9.34314575 87,11 C87,12.6568542 88.3431458,14 90,14 Z M12,86 C14.209139,86 16,84.209139 16,82 C16,79.790861 14.209139,78 12,78 C9.790861,78 8,79.790861 8,82 C8,84.209139 9.790861,86 12,86 Z M40,21 C42.209139,21 44,19.209139 44,17 C44,14.790861 42.209139,13 40,13 C37.790861,13 36,14.790861 36,17 C36,19.209139 37.790861,21 40,21 Z M63,10 C65.7614237,10 68,7.76142375 68,5 C68,2.23857625 65.7614237,0 63,0 C60.2385763,0 58,2.23857625 58,5 C58,7.76142375 60.2385763,10 63,10 Z M57,70 C59.209139,70 61,68.209139 61,66 C61,63.790861 59.209139,62 57,62 C54.790861,62 53,63.790861 53,66 C53,68.209139 54.790861,70 57,70 Z M86,92 C88.7614237,92 91,89.7614237 91,87 C91,84.2385763 88.7614237,82 86,82 C83.2385763,82 81,84.2385763 81,87 C81,89.7614237 83.2385763,92 86,92 Z M32,63 C34.7614237,63 37,60.7614237 37,58 C37,55.2385763 34.7614237,53 32,53 C29.2385763,53 27,55.2385763 27,58 C27,60.7614237 29.2385763,63 32,63 Z M89,50 C91.7614237,50 94,47.7614237 94,45 C94,42.2385763 91.7614237,40 89,40 C86.2385763,40 84,42.2385763 84,45 C84,47.7614237 86.2385763,50 89,50 Z M80,29 C81.1045695,29 82,28.1045695 82,27 C82,25.8954305 81.1045695,25 80,25 C78.8954305,25 78,25.8954305 78,27 C78,28.1045695 78.8954305,29 80,29 Z M60,91 C61.1045695,91 62,90.1045695 62,89 C62,87.8954305 61.1045695,87 60,87 C58.8954305,87 58,87.8954305 58,89 C58,90.1045695 58.8954305,91 60,91 Z M35,41 C36.1045695,41 37,40.1045695 37,39 C37,37.8954305 36.1045695,37 35,37 C33.8954305,37 33,37.8954305 33,39 C33,40.1045695 33.8954305,41 35,41 Z M12,60 C13.1045695,60 14,59.1045695 14,58 C14,56.8954305 13.1045695,56 12,56 C10.8954305,56 10,56.8954305 10,58 C10,59.1045695 10.8954305,60 12,60 Z" id="path-14"/>
    </g>
  </g>
  <g id="g-29" stroke="none" stroke-width="1" fill="none" fill-rule="evenodd" transform="matrix(1.3228240013122559, 0, 0, 1.1976709365844727, 288.38189697265625, 130.7819976806641)" style="">
    <g id="g-30" fill="#000000">
      <path d="M11,18 C14.8659932,18 18,14.8659932 18,11 C18,7.13400675 14.8659932,4 11,4 C7.13400675,4 4,7.13400675 4,11 C4,14.8659932 7.13400675,18 11,18 Z M59,43 C62.8659932,43 66,39.8659932 66,36 C66,32.1340068 62.8659932,29 59,29 C55.1340068,29 52,32.1340068 52,36 C52,39.8659932 55.1340068,43 59,43 Z M16,36 C17.6568542,36 19,34.6568542 19,33 C19,31.3431458 17.6568542,30 16,30 C14.3431458,30 13,31.3431458 13,33 C13,34.6568542 14.3431458,36 16,36 Z M79,67 C80.6568542,67 82,65.6568542 82,64 C82,62.3431458 80.6568542,61 79,61 C77.3431458,61 76,62.3431458 76,64 C76,65.6568542 77.3431458,67 79,67 Z M34,90 C35.6568542,90 37,88.6568542 37,87 C37,85.3431458 35.6568542,84 34,84 C32.3431458,84 31,85.3431458 31,87 C31,88.6568542 32.3431458,90 34,90 Z M90,14 C91.6568542,14 93,12.6568542 93,11 C93,9.34314575 91.6568542,8 90,8 C88.3431458,8 87,9.34314575 87,11 C87,12.6568542 88.3431458,14 90,14 Z M12,86 C14.209139,86 16,84.209139 16,82 C16,79.790861 14.209139,78 12,78 C9.790861,78 8,79.790861 8,82 C8,84.209139 9.790861,86 12,86 Z M40,21 C42.209139,21 44,19.209139 44,17 C44,14.790861 42.209139,13 40,13 C37.790861,13 36,14.790861 36,17 C36,19.209139 37.790861,21 40,21 Z M63,10 C65.7614237,10 68,7.76142375 68,5 C68,2.23857625 65.7614237,0 63,0 C60.2385763,0 58,2.23857625 58,5 C58,7.76142375 60.2385763,10 63,10 Z M57,70 C59.209139,70 61,68.209139 61,66 C61,63.790861 59.209139,62 57,62 C54.790861,62 53,63.790861 53,66 C53,68.209139 54.790861,70 57,70 Z M86,92 C88.7614237,92 91,89.7614237 91,87 C91,84.2385763 88.7614237,82 86,82 C83.2385763,82 81,84.2385763 81,87 C81,89.7614237 83.2385763,92 86,92 Z M32,63 C34.7614237,63 37,60.7614237 37,58 C37,55.2385763 34.7614237,53 32,53 C29.2385763,53 27,55.2385763 27,58 C27,60.7614237 29.2385763,63 32,63 Z M89,50 C91.7614237,50 94,47.7614237 94,45 C94,42.2385763 91.7614237,40 89,40 C86.2385763,40 84,42.2385763 84,45 C84,47.7614237 86.2385763,50 89,50 Z M80,29 C81.1045695,29 82,28.1045695 82,27 C82,25.8954305 81.1045695,25 80,25 C78.8954305,25 78,25.8954305 78,27 C78,28.1045695 78.8954305,29 80,29 Z M60,91 C61.1045695,91 62,90.1045695 62,89 C62,87.8954305 61.1045695,87 60,87 C58.8954305,87 58,87.8954305 58,89 C58,90.1045695 58.8954305,91 60,91 Z M35,41 C36.1045695,41 37,40.1045695 37,39 C37,37.8954305 36.1045695,37 35,37 C33.8954305,37 33,37.8954305 33,39 C33,40.1045695 33.8954305,41 35,41 Z M12,60 C13.1045695,60 14,59.1045695 14,58 C14,56.8954305 13.1045695,56 12,56 C10.8954305,56 10,56.8954305 10,58 C10,59.1045695 10.8954305,60 12,60 Z" id="path-15" style="fill: rgb(204, 0, 0);"/>
    </g>
  </g>
  <g id="g-31" stroke="none" stroke-width="1" fill="none" fill-rule="evenodd" transform="matrix(1.3228230476379395, 0, 0, 1.2769570350646973, 270.01556396484375, 128.66687011718753)" style="">
    <g id="g-32" fill="#000000">
      <path d="M11,18 C14.8659932,18 18,14.8659932 18,11 C18,7.13400675 14.8659932,4 11,4 C7.13400675,4 4,7.13400675 4,11 C4,14.8659932 7.13400675,18 11,18 Z M59,43 C62.8659932,43 66,39.8659932 66,36 C66,32.1340068 62.8659932,29 59,29 C55.1340068,29 52,32.1340068 52,36 C52,39.8659932 55.1340068,43 59,43 Z M16,36 C17.6568542,36 19,34.6568542 19,33 C19,31.3431458 17.6568542,30 16,30 C14.3431458,30 13,31.3431458 13,33 C13,34.6568542 14.3431458,36 16,36 Z M79,67 C80.6568542,67 82,65.6568542 82,64 C82,62.3431458 80.6568542,61 79,61 C77.3431458,61 76,62.3431458 76,64 C76,65.6568542 77.3431458,67 79,67 Z M34,90 C35.6568542,90 37,88.6568542 37,87 C37,85.3431458 35.6568542,84 34,84 C32.3431458,84 31,85.3431458 31,87 C31,88.6568542 32.3431458,90 34,90 Z M90,14 C91.6568542,14 93,12.6568542 93,11 C93,9.34314575 91.6568542,8 90,8 C88.3431458,8 87,9.34314575 87,11 C87,12.6568542 88.3431458,14 90,14 Z M12,86 C14.209139,86 16,84.209139 16,82 C16,79.790861 14.209139,78 12,78 C9.790861,78 8,79.790861 8,82 C8,84.209139 9.790861,86 12,86 Z M40,21 C42.209139,21 44,19.209139 44,17 C44,14.790861 42.209139,13 40,13 C37.790861,13 36,14.790861 36,17 C36,19.209139 37.790861,21 40,21 Z M63,10 C65.7614237,10 68,7.76142375 68,5 C68,2.23857625 65.7614237,0 63,0 C60.2385763,0 58,2.23857625 58,5 C58,7.76142375 60.2385763,10 63,10 Z M57,70 C59.209139,70 61,68.209139 61,66 C61,63.790861 59.209139,62 57,62 C54.790861,62 53,63.790861 53,66 C53,68.209139 54.790861,70 57,70 Z M86,92 C88.7614237,92 91,89.7614237 91,87 C91,84.2385763 88.7614237,82 86,82 C83.2385763,82 81,84.2385763 81,87 C81,89.7614237 83.2385763,92 86,92 Z M32,63 C34.7614237,63 37,60.7614237 37,58 C37,55.2385763 34.7614237,53 32,53 C29.2385763,53 27,55.2385763 27,58 C27,60.7614237 29.2385763,63 32,63 Z M89,50 C91.7614237,50 94,47.7614237 94,45 C94,42.2385763 91.7614237,40 89,40 C86.2385763,40 84,42.2385763 84,45 C84,47.7614237 86.2385763,50 89,50 Z M80,29 C81.1045695,29 82,28.1045695 82,27 C82,25.8954305 81.1045695,25 80,25 C78.8954305,25 78,25.8954305 78,27 C78,28.1045695 78.8954305,29 80,29 Z M60,91 C61.1045695,91 62,90.1045695 62,89 C62,87.8954305 61.1045695,87 60,87 C58.8954305,87 58,87.8954305 58,89 C58,90.1045695 58.8954305,91 60,91 Z M35,41 C36.1045695,41 37,40.1045695 37,39 C37,37.8954305 36.1045695,37 35,37 C33.8954305,37 33,37.8954305 33,39 C33,40.1045695 33.8954305,41 35,41 Z M12,60 C13.1045695,60 14,59.1045695 14,58 C14,56.8954305 13.1045695,56 12,56 C10.8954305,56 10,56.8954305 10,58 C10,59.1045695 10.8954305,60 12,60 Z" id="path-16" style="fill: rgb(255, 222, 21);"/>
    </g>
  </g>
  <g id="g-33" stroke="none" stroke-width="1" fill="none" fill-rule="evenodd" transform="matrix(1.1533570289611816, 0, 0, 1.2192940711975098, 284.958740234375, 147.75222778320315)" style="">
    <g id="g-34" fill="#000000">
      <path d="M11,18 C14.8659932,18 18,14.8659932 18,11 C18,7.13400675 14.8659932,4 11,4 C7.13400675,4 4,7.13400675 4,11 C4,14.8659932 7.13400675,18 11,18 Z M59,43 C62.8659932,43 66,39.8659932 66,36 C66,32.1340068 62.8659932,29 59,29 C55.1340068,29 52,32.1340068 52,36 C52,39.8659932 55.1340068,43 59,43 Z M16,36 C17.6568542,36 19,34.6568542 19,33 C19,31.3431458 17.6568542,30 16,30 C14.3431458,30 13,31.3431458 13,33 C13,34.6568542 14.3431458,36 16,36 Z M79,67 C80.6568542,67 82,65.6568542 82,64 C82,62.3431458 80.6568542,61 79,61 C77.3431458,61 76,62.3431458 76,64 C76,65.6568542 77.3431458,67 79,67 Z M34,90 C35.6568542,90 37,88.6568542 37,87 C37,85.3431458 35.6568542,84 34,84 C32.3431458,84 31,85.3431458 31,87 C31,88.6568542 32.3431458,90 34,90 Z M90,14 C91.6568542,14 93,12.6568542 93,11 C93,9.34314575 91.6568542,8 90,8 C88.3431458,8 87,9.34314575 87,11 C87,12.6568542 88.3431458,14 90,14 Z M12,86 C14.209139,86 16,84.209139 16,82 C16,79.790861 14.209139,78 12,78 C9.790861,78 8,79.790861 8,82 C8,84.209139 9.790861,86 12,86 Z M40,21 C42.209139,21 44,19.209139 44,17 C44,14.790861 42.209139,13 40,13 C37.790861,13 36,14.790861 36,17 C36,19.209139 37.790861,21 40,21 Z M63,10 C65.7614237,10 68,7.76142375 68,5 C68,2.23857625 65.7614237,0 63,0 C60.2385763,0 58,2.23857625 58,5 C58,7.76142375 60.2385763,10 63,10 Z M57,70 C59.209139,70 61,68.209139 61,66 C61,63.790861 59.209139,62 57,62 C54.790861,62 53,63.790861 53,66 C53,68.209139 54.790861,70 57,70 Z M86,92 C88.7614237,92 91,89.7614237 91,87 C91,84.2385763 88.7614237,82 86,82 C83.2385763,82 81,84.2385763 81,87 C81,89.7614237 83.2385763,92 86,92 Z M32,63 C34.7614237,63 37,60.7614237 37,58 C37,55.2385763 34.7614237,53 32,53 C29.2385763,53 27,55.2385763 27,58 C27,60.7614237 29.2385763,63 32,63 Z M89,50 C91.7614237,50 94,47.7614237 94,45 C94,42.2385763 91.7614237,40 89,40 C86.2385763,40 84,42.2385763 84,45 C84,47.7614237 86.2385763,50 89,50 Z M80,29 C81.1045695,29 82,28.1045695 82,27 C82,25.8954305 81.1045695,25 80,25 C78.8954305,25 78,25.8954305 78,27 C78,28.1045695 78.8954305,29 80,29 Z M60,91 C61.1045695,91 62,90.1045695 62,89 C62,87.8954305 61.1045695,87 60,87 C58.8954305,87 58,87.8954305 58,89 C58,90.1045695 58.8954305,91 60,91 Z M35,41 C36.1045695,41 37,40.1045695 37,39 C37,37.8954305 36.1045695,37 35,37 C33.8954305,37 33,37.8954305 33,39 C33,40.1045695 33.8954305,41 35,41 Z M12,60 C13.1045695,60 14,59.1045695 14,58 C14,56.8954305 13.1045695,56 12,56 C10.8954305,56 10,56.8954305 10,58 C10,59.1045695 10.8954305,60 12,60 Z" id="path-17"/>
    </g>
  </g>
  <g id="g-35" stroke="none" stroke-width="1" fill="none" fill-rule="evenodd" transform="matrix(1.3228240013122559, 0, 0, 1.1976709365844727, 370.6100158691406, 2.1347661018371724)" style="">
    <g id="g-36" fill="#000000">
      <path d="M11,18 C14.8659932,18 18,14.8659932 18,11 C18,7.13400675 14.8659932,4 11,4 C7.13400675,4 4,7.13400675 4,11 C4,14.8659932 7.13400675,18 11,18 Z M59,43 C62.8659932,43 66,39.8659932 66,36 C66,32.1340068 62.8659932,29 59,29 C55.1340068,29 52,32.1340068 52,36 C52,39.8659932 55.1340068,43 59,43 Z M16,36 C17.6568542,36 19,34.6568542 19,33 C19,31.3431458 17.6568542,30 16,30 C14.3431458,30 13,31.3431458 13,33 C13,34.6568542 14.3431458,36 16,36 Z M79,67 C80.6568542,67 82,65.6568542 82,64 C82,62.3431458 80.6568542,61 79,61 C77.3431458,61 76,62.3431458 76,64 C76,65.6568542 77.3431458,67 79,67 Z M34,90 C35.6568542,90 37,88.6568542 37,87 C37,85.3431458 35.6568542,84 34,84 C32.3431458,84 31,85.3431458 31,87 C31,88.6568542 32.3431458,90 34,90 Z M90,14 C91.6568542,14 93,12.6568542 93,11 C93,9.34314575 91.6568542,8 90,8 C88.3431458,8 87,9.34314575 87,11 C87,12.6568542 88.3431458,14 90,14 Z M12,86 C14.209139,86 16,84.209139 16,82 C16,79.790861 14.209139,78 12,78 C9.790861,78 8,79.790861 8,82 C8,84.209139 9.790861,86 12,86 Z M40,21 C42.209139,21 44,19.209139 44,17 C44,14.790861 42.209139,13 40,13 C37.790861,13 36,14.790861 36,17 C36,19.209139 37.790861,21 40,21 Z M63,10 C65.7614237,10 68,7.76142375 68,5 C68,2.23857625 65.7614237,0 63,0 C60.2385763,0 58,2.23857625 58,5 C58,7.76142375 60.2385763,10 63,10 Z M57,70 C59.209139,70 61,68.209139 61,66 C61,63.790861 59.209139,62 57,62 C54.790861,62 53,63.790861 53,66 C53,68.209139 54.790861,70 57,70 Z M86,92 C88.7614237,92 91,89.7614237 91,87 C91,84.2385763 88.7614237,82 86,82 C83.2385763,82 81,84.2385763 81,87 C81,89.7614237 83.2385763,92 86,92 Z M32,63 C34.7614237,63 37,60.7614237 37,58 C37,55.2385763 34.7614237,53 32,53 C29.2385763,53 27,55.2385763 27,58 C27,60.7614237 29.2385763,63 32,63 Z M89,50 C91.7614237,50 94,47.7614237 94,45 C94,42.2385763 91.7614237,40 89,40 C86.2385763,40 84,42.2385763 84,45 C84,47.7614237 86.2385763,50 89,50 Z M80,29 C81.1045695,29 82,28.1045695 82,27 C82,25.8954305 81.1045695,25 80,25 C78.8954305,25 78,25.8954305 78,27 C78,28.1045695 78.8954305,29 80,29 Z M60,91 C61.1045695,91 62,90.1045695 62,89 C62,87.8954305 61.1045695,87 60,87 C58.8954305,87 58,87.8954305 58,89 C58,90.1045695 58.8954305,91 60,91 Z M35,41 C36.1045695,41 37,40.1045695 37,39 C37,37.8954305 36.1045695,37 35,37 C33.8954305,37 33,37.8954305 33,39 C33,40.1045695 33.8954305,41 35,41 Z M12,60 C13.1045695,60 14,59.1045695 14,58 C14,56.8954305 13.1045695,56 12,56 C10.8954305,56 10,56.8954305 10,58 C10,59.1045695 10.8954305,60 12,60 Z" id="path-18" style="fill: rgb(204, 0, 0);"/>
    </g>
  </g>
  <g id="g-37" stroke="none" stroke-width="1" fill="none" fill-rule="evenodd" transform="matrix(1.3228230476379395, 0, 0, 1.2769570350646973, 371.47442626953125, 72.96393585205081)" style="">
    <g id="g-38" fill="#000000">
      <path d="M11,18 C14.8659932,18 18,14.8659932 18,11 C18,7.13400675 14.8659932,4 11,4 C7.13400675,4 4,7.13400675 4,11 C4,14.8659932 7.13400675,18 11,18 Z M59,43 C62.8659932,43 66,39.8659932 66,36 C66,32.1340068 62.8659932,29 59,29 C55.1340068,29 52,32.1340068 52,36 C52,39.8659932 55.1340068,43 59,43 Z M16,36 C17.6568542,36 19,34.6568542 19,33 C19,31.3431458 17.6568542,30 16,30 C14.3431458,30 13,31.3431458 13,33 C13,34.6568542 14.3431458,36 16,36 Z M79,67 C80.6568542,67 82,65.6568542 82,64 C82,62.3431458 80.6568542,61 79,61 C77.3431458,61 76,62.3431458 76,64 C76,65.6568542 77.3431458,67 79,67 Z M34,90 C35.6568542,90 37,88.6568542 37,87 C37,85.3431458 35.6568542,84 34,84 C32.3431458,84 31,85.3431458 31,87 C31,88.6568542 32.3431458,90 34,90 Z M90,14 C91.6568542,14 93,12.6568542 93,11 C93,9.34314575 91.6568542,8 90,8 C88.3431458,8 87,9.34314575 87,11 C87,12.6568542 88.3431458,14 90,14 Z M12,86 C14.209139,86 16,84.209139 16,82 C16,79.790861 14.209139,78 12,78 C9.790861,78 8,79.790861 8,82 C8,84.209139 9.790861,86 12,86 Z M40,21 C42.209139,21 44,19.209139 44,17 C44,14.790861 42.209139,13 40,13 C37.790861,13 36,14.790861 36,17 C36,19.209139 37.790861,21 40,21 Z M63,10 C65.7614237,10 68,7.76142375 68,5 C68,2.23857625 65.7614237,0 63,0 C60.2385763,0 58,2.23857625 58,5 C58,7.76142375 60.2385763,10 63,10 Z M57,70 C59.209139,70 61,68.209139 61,66 C61,63.790861 59.209139,62 57,62 C54.790861,62 53,63.790861 53,66 C53,68.209139 54.790861,70 57,70 Z M86,92 C88.7614237,92 91,89.7614237 91,87 C91,84.2385763 88.7614237,82 86,82 C83.2385763,82 81,84.2385763 81,87 C81,89.7614237 83.2385763,92 86,92 Z M32,63 C34.7614237,63 37,60.7614237 37,58 C37,55.2385763 34.7614237,53 32,53 C29.2385763,53 27,55.2385763 27,58 C27,60.7614237 29.2385763,63 32,63 Z M89,50 C91.7614237,50 94,47.7614237 94,45 C94,42.2385763 91.7614237,40 89,40 C86.2385763,40 84,42.2385763 84,45 C84,47.7614237 86.2385763,50 89,50 Z M80,29 C81.1045695,29 82,28.1045695 82,27 C82,25.8954305 81.1045695,25 80,25 C78.8954305,25 78,25.8954305 78,27 C78,28.1045695 78.8954305,29 80,29 Z M60,91 C61.1045695,91 62,90.1045695 62,89 C62,87.8954305 61.1045695,87 60,87 C58.8954305,87 58,87.8954305 58,89 C58,90.1045695 58.8954305,91 60,91 Z M35,41 C36.1045695,41 37,40.1045695 37,39 C37,37.8954305 36.1045695,37 35,37 C33.8954305,37 33,37.8954305 33,39 C33,40.1045695 33.8954305,41 35,41 Z M12,60 C13.1045695,60 14,59.1045695 14,58 C14,56.8954305 13.1045695,56 12,56 C10.8954305,56 10,56.8954305 10,58 C10,59.1045695 10.8954305,60 12,60 Z" id="path-19" style="fill: rgb(255, 222, 21);"/>
    </g>
  </g>
  <g id="g-39" stroke="none" stroke-width="1" fill="none" fill-rule="evenodd" transform="matrix(1.1533570289611816, 0, 0, 1.2192940711975098, 392.38580322265625, 150.40473937988284)" style="">
    <g id="g-40" fill="#000000">
      <path d="M11,18 C14.8659932,18 18,14.8659932 18,11 C18,7.13400675 14.8659932,4 11,4 C7.13400675,4 4,7.13400675 4,11 C4,14.8659932 7.13400675,18 11,18 Z M59,43 C62.8659932,43 66,39.8659932 66,36 C66,32.1340068 62.8659932,29 59,29 C55.1340068,29 52,32.1340068 52,36 C52,39.8659932 55.1340068,43 59,43 Z M16,36 C17.6568542,36 19,34.6568542 19,33 C19,31.3431458 17.6568542,30 16,30 C14.3431458,30 13,31.3431458 13,33 C13,34.6568542 14.3431458,36 16,36 Z M79,67 C80.6568542,67 82,65.6568542 82,64 C82,62.3431458 80.6568542,61 79,61 C77.3431458,61 76,62.3431458 76,64 C76,65.6568542 77.3431458,67 79,67 Z M34,90 C35.6568542,90 37,88.6568542 37,87 C37,85.3431458 35.6568542,84 34,84 C32.3431458,84 31,85.3431458 31,87 C31,88.6568542 32.3431458,90 34,90 Z M90,14 C91.6568542,14 93,12.6568542 93,11 C93,9.34314575 91.6568542,8 90,8 C88.3431458,8 87,9.34314575 87,11 C87,12.6568542 88.3431458,14 90,14 Z M12,86 C14.209139,86 16,84.209139 16,82 C16,79.790861 14.209139,78 12,78 C9.790861,78 8,79.790861 8,82 C8,84.209139 9.790861,86 12,86 Z M40,21 C42.209139,21 44,19.209139 44,17 C44,14.790861 42.209139,13 40,13 C37.790861,13 36,14.790861 36,17 C36,19.209139 37.790861,21 40,21 Z M63,10 C65.7614237,10 68,7.76142375 68,5 C68,2.23857625 65.7614237,0 63,0 C60.2385763,0 58,2.23857625 58,5 C58,7.76142375 60.2385763,10 63,10 Z M57,70 C59.209139,70 61,68.209139 61,66 C61,63.790861 59.209139,62 57,62 C54.790861,62 53,63.790861 53,66 C53,68.209139 54.790861,70 57,70 Z M86,92 C88.7614237,92 91,89.7614237 91,87 C91,84.2385763 88.7614237,82 86,82 C83.2385763,82 81,84.2385763 81,87 C81,89.7614237 83.2385763,92 86,92 Z M32,63 C34.7614237,63 37,60.7614237 37,58 C37,55.2385763 34.7614237,53 32,53 C29.2385763,53 27,55.2385763 27,58 C27,60.7614237 29.2385763,63 32,63 Z M89,50 C91.7614237,50 94,47.7614237 94,45 C94,42.2385763 91.7614237,40 89,40 C86.2385763,40 84,42.2385763 84,45 C84,47.7614237 86.2385763,50 89,50 Z M80,29 C81.1045695,29 82,28.1045695 82,27 C82,25.8954305 81.1045695,25 80,25 C78.8954305,25 78,25.8954305 78,27 C78,28.1045695 78.8954305,29 80,29 Z M60,91 C61.1045695,91 62,90.1045695 62,89 C62,87.8954305 61.1045695,87 60,87 C58.8954305,87 58,87.8954305 58,89 C58,90.1045695 58.8954305,91 60,91 Z M35,41 C36.1045695,41 37,40.1045695 37,39 C37,37.8954305 36.1045695,37 35,37 C33.8954305,37 33,37.8954305 33,39 C33,40.1045695 33.8954305,41 35,41 Z M12,60 C13.1045695,60 14,59.1045695 14,58 C14,56.8954305 13.1045695,56 12,56 C10.8954305,56 10,56.8954305 10,58 C10,59.1045695 10.8954305,60 12,60 Z" id="path-20"/>
    </g>
  </g>
</svg>